<svg width="152" height="32" viewBox="0 0 152 32" fill="none" xmlns="http://www.w3.org/2000/svg">
<path d="M0 8.77148H10.5931V11.5354H3.06338V14.4809H9.69655V17.2449H3.06338V22.5995H0V8.77148Z" fill="#5B52F9"/>
<path d="M12.7197 12.0139H15.7416V14.1426C16.0446 13.4227 16.4597 12.8452 16.9869 12.41C17.5182 11.9768 18.2342 11.7788 19.137 11.8159V14.9594H18.9793C17.9706 14.9594 17.1799 15.2626 16.605 15.867C16.028 16.4734 15.7416 17.414 15.7416 18.6887V22.5995H12.7197V12.0139Z" fill="#5B52F9"/>
<path d="M24.0478 22.7975C23.5435 22.7975 23.0682 22.7273 22.6199 22.5912C22.1758 22.4551 21.7897 22.2488 21.4577 21.9724C21.1297 21.6919 20.8703 21.3515 20.6773 20.9493C20.4822 20.5492 20.3867 20.083 20.3867 19.555V19.522C20.3867 18.9403 20.4905 18.4391 20.7022 18.0204C20.918 17.5975 21.2128 17.2489 21.5905 16.9725C21.9661 16.692 22.4144 16.4837 22.9354 16.3455C23.4605 16.2093 24.0416 16.1392 24.6788 16.1392C25.2205 16.1392 25.6937 16.1805 26.0984 16.263C26.501 16.3413 26.8974 16.4445 27.2855 16.5765V16.395C27.2855 15.7638 27.0905 15.2853 26.7044 14.9594C26.3225 14.6293 25.7539 14.4643 25.0025 14.4643C24.4152 14.4643 23.9005 14.5138 23.4584 14.6128C23.0143 14.7119 22.5473 14.8521 22.0554 15.0336L21.2999 12.74C21.8852 12.4924 22.4954 12.2903 23.1263 12.1294C23.7614 11.9706 24.5314 11.8901 25.4342 11.8901C26.2686 11.8901 26.9805 11.9953 27.5678 12.2037C28.1593 12.4079 28.6491 12.6987 29.0372 13.0782C29.4295 13.4743 29.718 13.959 29.9006 14.5303C30.0874 15.1038 30.1829 15.7432 30.1829 16.4527V22.5994H27.2689V21.4526C26.8912 21.861 26.4471 22.1869 25.9323 22.4344C25.4176 22.6758 24.7888 22.7975 24.0478 22.7975ZM24.961 20.7266C25.675 20.7266 26.2478 20.5574 26.6795 20.215C27.1112 19.8685 27.3271 19.4209 27.3271 18.8702V18.3339C27.0614 18.2142 26.7646 18.1173 26.4388 18.0451C26.1171 17.975 25.7684 17.9378 25.3927 17.9378C24.7452 17.9378 24.2346 18.0657 23.8652 18.3174C23.4937 18.5649 23.309 18.9259 23.309 19.3982V19.4395C23.309 19.8479 23.4605 20.1635 23.7656 20.3883C24.0686 20.6152 24.4671 20.7266 24.961 20.7266Z" fill="#5B52F9"/>
<path d="M37.1569 22.7974C36.5363 22.7974 35.9323 22.6777 35.3471 22.4426C34.7659 22.2074 34.2471 21.8547 33.7946 21.3865C33.3463 20.9203 32.9852 20.3469 32.7154 19.6704C32.4435 18.9897 32.3086 18.2079 32.3086 17.3272V17.2859C32.3086 16.4072 32.4435 15.6276 32.7154 14.951C32.9852 14.2703 33.3422 13.6949 33.7863 13.2266C34.2346 12.7605 34.7493 12.4078 35.3305 12.1705C35.9157 11.9354 36.5259 11.8158 37.1569 11.8158C37.9704 11.8158 38.6367 11.9767 39.1576 12.2943C39.6827 12.6078 40.1227 12.975 40.4776 13.3916V8.17725H43.4995V22.5993H40.4776V21.0812C40.1061 21.5824 39.6578 21.995 39.1327 22.3188C38.6118 22.6365 37.9538 22.7974 37.1569 22.7974ZM37.9372 20.2479C38.2901 20.2479 38.6221 20.1798 38.9335 20.0416C39.2489 19.9055 39.5229 19.7075 39.7553 19.4476C39.9878 19.1898 40.1725 18.8824 40.3116 18.5235C40.4485 18.1605 40.5191 17.7624 40.5191 17.3272V17.2859C40.5191 16.8528 40.4485 16.4526 40.3116 16.0896C40.1725 15.7266 39.9878 15.4192 39.7553 15.1655C39.5229 14.9077 39.2489 14.7097 38.9335 14.5715C38.6221 14.4353 38.2901 14.3652 37.9372 14.3652C37.5761 14.3652 37.242 14.4353 36.9327 14.5715C36.6214 14.7097 36.3454 14.9077 36.1025 15.1655C35.8639 15.4192 35.675 15.7245 35.538 16.0813C35.399 16.4402 35.3305 16.8404 35.3305 17.2859V17.3272C35.3305 17.7624 35.399 18.1605 35.538 18.5235C35.675 18.8824 35.8639 19.1898 36.1025 19.4476C36.3454 19.7075 36.6214 19.9055 36.9327 20.0416C37.242 20.1798 37.5761 20.2479 37.9372 20.2479Z" fill="#5B52F9"/>
<path d="M46.2031 12.0139H49.225V14.1426C49.528 13.4227 49.9431 12.8452 50.4703 12.41C51.0016 11.9768 51.7176 11.7788 52.6204 11.8159V14.9594H52.4627C51.454 14.9594 50.6633 15.2626 50.0884 15.867C49.5114 16.4734 49.225 17.414 49.225 18.6887V22.5995H46.2031V12.0139Z" fill="#5B52F9"/>
<path d="M57.5312 22.7975C57.0269 22.7975 56.5516 22.7273 56.1033 22.5912C55.6592 22.4551 55.2731 22.2488 54.9411 21.9724C54.6131 21.6919 54.3537 21.3515 54.1607 20.9493C53.9656 20.5492 53.8701 20.083 53.8701 19.555V19.522C53.8701 18.9403 53.9739 18.4391 54.1856 18.0204C54.4014 17.5975 54.6962 17.2489 55.0739 16.9725C55.4495 16.692 55.8978 16.4837 56.4188 16.3455C56.9439 16.2093 57.525 16.1392 58.1622 16.1392C58.7039 16.1392 59.1771 16.1805 59.5818 16.263C59.9844 16.3413 60.3808 16.4445 60.7689 16.5765V16.395C60.7689 15.7638 60.5739 15.2853 60.1878 14.9594C59.8059 14.6293 59.2373 14.4643 58.4859 14.4643C57.8986 14.4643 57.3839 14.5138 56.9418 14.6128C56.4976 14.7119 56.0307 14.8521 55.5388 15.0336L54.7833 12.74C55.3686 12.4924 55.9788 12.2903 56.6097 12.1294C57.2448 11.9706 58.0148 11.8901 58.9176 11.8901C59.752 11.8901 60.4639 11.9953 61.0512 12.2037C61.6427 12.4079 62.1325 12.6987 62.5206 13.0782C62.9129 13.4743 63.2014 13.959 63.384 14.5303C63.5708 15.1038 63.6663 15.7432 63.6663 16.4527V22.5994H60.7523V21.4526C60.3746 21.861 59.9305 22.1869 59.4157 22.4344C58.901 22.6758 58.2722 22.7975 57.5312 22.7975ZM58.4444 20.7266C59.1584 20.7266 59.7312 20.5574 60.1629 20.215C60.5946 19.8685 60.8105 19.4209 60.8105 18.8702V18.3339C60.5448 18.2142 60.248 18.1173 59.9222 18.0451C59.6005 17.975 59.2518 17.9378 58.8761 17.9378C58.2286 17.9378 57.718 18.0657 57.3486 18.3174C56.9771 18.5649 56.7924 18.9259 56.7924 19.3982V19.4395C56.7924 19.8479 56.9439 20.1635 57.249 20.3883C57.552 20.6152 57.9505 20.7266 58.4444 20.7266Z" fill="#5B52F9"/>
<path d="M71.0388 25.8007C70.1629 25.8007 69.3286 25.7038 68.5316 25.512C67.7388 25.3181 67.0061 25.0458 66.3316 24.6951L67.361 22.4427C67.9193 22.7439 68.4776 22.9811 69.038 23.1523C69.6025 23.3214 70.2439 23.408 70.964 23.408C71.9976 23.408 72.7614 23.1626 73.2553 22.6737C73.7535 22.1911 74.0025 21.4753 74.0025 20.5286V20.0088C73.5542 20.5533 73.0644 20.9782 72.5331 21.2794C72.0018 21.5826 71.3314 21.7332 70.524 21.7332C69.9035 21.7332 69.3078 21.6259 68.7391 21.4114C68.1684 21.1928 67.6641 20.871 67.2282 20.4461C66.7903 20.0232 66.4416 19.5055 66.1822 18.895C65.9207 18.2844 65.792 17.5831 65.792 16.791V16.7498C65.792 15.9639 65.9248 15.2647 66.1905 14.6541C66.4561 14.0395 66.8069 13.5217 67.2448 13.103C67.6807 12.6802 68.185 12.3605 68.7557 12.1459C69.3244 11.9273 69.9139 11.8159 70.524 11.8159C71.348 11.8159 72.0225 11.9686 72.5497 12.2697C73.081 12.5729 73.5501 12.9463 73.961 13.3918V12.0139H76.9829V20.2068C76.9829 22.0941 76.5304 23.4823 75.6297 24.3734C75.1253 24.8725 74.4923 25.2356 73.7286 25.4625C72.9689 25.6873 72.0723 25.8007 71.0388 25.8007ZM71.3957 19.2415C71.7652 19.2415 72.1097 19.1837 72.4252 19.0682C72.7448 18.9486 73.0229 18.7794 73.2553 18.5649C73.4878 18.3463 73.6704 18.0843 73.8033 17.7811C73.9361 17.48 74.0025 17.1499 74.0025 16.791V16.7498C74.0025 16.3991 73.9361 16.0712 73.8033 15.768C73.6704 15.4668 73.4878 15.2069 73.2553 14.9924C73.0229 14.7738 72.7448 14.6046 72.4252 14.4891C72.1097 14.3695 71.7652 14.3076 71.3957 14.3076C71.0242 14.3076 70.6839 14.3695 70.3746 14.4891C70.0633 14.6046 69.7935 14.7738 69.561 14.9924C69.3286 15.2069 69.1459 15.4668 69.0131 15.768C68.8803 16.0712 68.8139 16.3991 68.8139 16.7498V16.791C68.8139 17.5295 69.0567 18.1235 69.5444 18.5732C70.0363 19.0187 70.6527 19.2415 71.3957 19.2415Z" fill="#5B52F9"/>
<path d="M83.4229 22.7973C82.6633 22.7973 81.8913 22.6694 81.1067 22.4177C80.3201 22.1599 79.5667 21.7536 78.8486 21.1966L80.1437 19.2247C80.7248 19.6435 81.3018 19.959 81.8788 20.1736C82.4537 20.384 82.9933 20.4871 83.4977 20.4871C83.9335 20.4871 84.2552 20.417 84.4607 20.2726C84.6703 20.1241 84.7761 19.9322 84.7761 19.695V19.6538C84.7761 19.5011 84.7139 19.3629 84.5935 19.2412C84.4773 19.1216 84.3133 19.0185 84.1037 18.936C83.8982 18.8493 83.6637 18.7668 83.398 18.6884C83.1365 18.6121 82.8605 18.5276 82.5679 18.4327C82.1963 18.3295 81.8207 18.2017 81.4388 18.0532C81.0611 17.9005 80.7207 17.7025 80.4177 17.4591C80.1126 17.2116 79.8635 16.9125 79.6705 16.5598C79.4816 16.2029 79.3883 15.7657 79.3883 15.2479V15.2149C79.3883 14.6704 79.4899 14.1919 79.6954 13.7793C79.8988 13.3668 80.1769 13.0161 80.5256 12.7232C80.8784 12.4324 81.2914 12.2158 81.7626 12.0714C82.2316 11.9291 82.738 11.8569 83.2818 11.8569C83.9563 11.8569 84.6433 11.9683 85.3407 12.187C86.038 12.4015 86.6773 12.6985 87.2584 13.078L86.1044 15.1489C85.5731 14.8478 85.0543 14.6085 84.552 14.4311C84.0477 14.2558 83.6056 14.1671 83.2237 14.1671C82.8522 14.1671 82.572 14.2372 82.3852 14.3734C82.2026 14.5116 82.1113 14.6848 82.1113 14.8932V14.9344C82.1113 15.0788 82.1694 15.2067 82.2856 15.3222C82.406 15.4336 82.5679 15.5367 82.7671 15.6357C82.9663 15.7347 83.1926 15.8317 83.4478 15.9245C83.7073 16.0194 83.9833 16.1101 84.278 16.1968C84.6475 16.3185 85.0252 16.4608 85.4071 16.6258C85.7931 16.7908 86.1397 16.9929 86.4448 17.2281C86.7478 17.4653 87.001 17.7541 87.2003 18.0944C87.3995 18.4368 87.4991 18.8514 87.4991 19.3402V19.3815C87.4991 19.9755 87.3933 20.4871 87.1837 20.9161C86.9782 21.341 86.6897 21.6917 86.3203 21.9722C85.9488 22.2486 85.515 22.4549 85.0169 22.591C84.5229 22.7271 83.9916 22.7973 83.4229 22.7973Z" fill="#5B52F9"/>
<path d="M89.7209 8.17725H92.9005V10.8504H89.7209V8.17725ZM89.4054 25.8171C89.1232 25.8171 88.8845 25.8047 88.6915 25.7841C88.5026 25.7676 88.3054 25.7387 88.0938 25.7016V23.3501C88.3304 23.3873 88.542 23.4079 88.7247 23.4079C89.0443 23.4079 89.3058 23.313 89.5051 23.1274C89.7043 22.9459 89.8039 22.6323 89.8039 22.1868V12.0138H92.8175V22.4178C92.8175 23.5935 92.529 24.4557 91.9541 25.0003C91.3771 25.5448 90.5283 25.8171 89.4054 25.8171Z" fill="#5B52F9"/>
<path d="M98.6855 22.7975C98.1812 22.7975 97.7059 22.7273 97.2576 22.5912C96.8135 22.4551 96.4274 22.2488 96.0954 21.9724C95.7674 21.6919 95.508 21.3515 95.315 20.9493C95.1199 20.5492 95.0244 20.083 95.0244 19.555V19.522C95.0244 18.9403 95.1282 18.4391 95.3399 18.0204C95.5557 17.5975 95.8504 17.2489 96.2282 16.9725C96.6038 16.692 97.0521 16.4837 97.5731 16.3455C98.0982 16.2093 98.6793 16.1392 99.3165 16.1392C99.8582 16.1392 100.331 16.1805 100.736 16.263C101.139 16.3413 101.535 16.4445 101.923 16.5765V16.395C101.923 15.7638 101.728 15.2853 101.342 14.9594C100.96 14.6293 100.392 14.4643 99.6402 14.4643C99.0529 14.4643 98.5382 14.5138 98.0961 14.6128C97.6519 14.7119 97.185 14.8521 96.6931 15.0336L95.9376 12.74C96.5229 12.4924 97.1331 12.2903 97.764 12.1294C98.3991 11.9706 99.1691 11.8901 100.072 11.8901C100.906 11.8901 101.618 11.9953 102.206 12.2037C102.797 12.4079 103.287 12.6987 103.675 13.0782C104.067 13.4743 104.356 13.959 104.538 14.5303C104.725 15.1038 104.821 15.7432 104.821 16.4527V22.5994H101.907V21.4526C101.529 21.861 101.085 22.1869 100.57 22.4344C100.055 22.6758 99.4265 22.7975 98.6855 22.7975ZM99.5987 20.7266C100.313 20.7266 100.886 20.5574 101.317 20.215C101.749 19.8685 101.965 19.4209 101.965 18.8702V18.3339C101.699 18.2142 101.402 18.1173 101.076 18.0451C100.755 17.975 100.406 17.9378 100.03 17.9378C99.3829 17.9378 98.8723 18.0657 98.5029 18.3174C98.1314 18.5649 97.9467 18.9259 97.9467 19.3982V19.4395C97.9467 19.8479 98.0982 20.1635 98.4033 20.3883C98.7063 20.6152 99.1048 20.7266 99.5987 20.7266Z" fill="#5B52F9"/>
<path d="M107.428 8.17725H110.45V15.8668L113.986 12.0138H117.606L113.546 16.1804L117.739 22.5993H114.244L111.521 18.2513L110.45 19.3816V22.5993H107.428V8.17725Z" fill="#5B52F9"/>
<path d="M122.786 22.7809C122.321 22.7809 121.9 22.7314 121.524 22.6324C121.147 22.5334 120.823 22.3601 120.553 22.1126C120.281 21.8609 120.067 21.533 119.914 21.1308C119.764 20.7306 119.69 20.2191 119.69 19.5961V14.5798H118.411V12.0138H119.69V9.30762H122.711V12.0138H125.21V14.5798H122.711V19.1011C122.711 19.79 123.035 20.1324 123.683 20.1324C124.214 20.1324 124.708 20.0066 125.169 19.7529V22.1621C124.853 22.3498 124.501 22.4983 124.114 22.6076C123.733 22.7231 123.288 22.7809 122.786 22.7809Z" fill="#5B52F9"/>
<mask id="mask0_686_12798" style="mask-type:luminance" maskUnits="userSpaceOnUse" x="128" y="0" width="13" height="12">
<path d="M128.126 0H140.045V11.8458H128.126V0Z" fill="white"/>
</mask>
<g mask="url(#mask0_686_12798)">
<path d="M134.101 0C135.753 0 137.246 0.664175 138.327 1.73882C139.408 2.81346 140.079 4.29858 140.079 5.93839C140.079 7.5782 139.408 9.06331 138.327 10.138C137.246 11.2126 135.753 11.8768 134.101 11.8768C132.451 11.8768 130.957 11.2126 129.876 10.138C128.794 9.06331 128.126 7.5782 128.126 5.93839C128.126 4.29858 128.794 2.81346 129.876 1.73882C130.957 0.664175 132.451 0 134.101 0ZM137.858 2.20498C136.897 1.24997 135.569 0.657987 134.101 0.657987C132.636 0.657987 131.308 1.24997 130.347 2.20498C129.384 3.15999 128.79 4.48009 128.79 5.93839C128.79 7.39668 129.384 8.71678 130.347 9.67179C131.308 10.6268 132.636 11.2167 134.101 11.2167C135.569 11.2167 136.897 10.6268 137.858 9.67179C138.819 8.71678 139.414 7.39668 139.414 5.93839C139.414 4.48009 138.819 3.15999 137.858 2.20498Z" fill="#5B52F9"/>
</g>
<path d="M130.611 2.65967H131.284V7.016L133.708 4.49956H134.546L132.654 6.42195L134.605 8.9714H133.808L132.197 6.88399L131.284 7.80806V8.9714H130.611V2.65967Z" fill="#5B52F9"/>
<path d="M135.563 4.49947H136.236V5.67106C136.313 5.48542 136.412 5.31422 136.535 5.15952C136.661 5.00689 136.803 4.87488 136.958 4.76349C137.112 4.64798 137.282 4.56341 137.465 4.50772C137.651 4.44791 137.855 4.42109 138.071 4.42522V5.14302H138.021C137.776 5.14302 137.543 5.1884 137.323 5.27503C137.108 5.35754 136.917 5.48748 136.751 5.66281C136.589 5.83401 136.462 6.04853 136.369 6.30636C136.28 6.56007 136.236 6.85503 136.236 7.18918V8.97131H135.563V4.49947Z" fill="#5B52F9"/>
<mask id="mask1_686_12798" style="mask-type:luminance" maskUnits="userSpaceOnUse" x="140" y="10" width="12" height="12">
<path d="M140.081 10.0762H152V21.922H140.081V10.0762Z" fill="white"/>
</mask>
<g mask="url(#mask1_686_12798)">
<path d="M146.056 10.0762C147.708 10.0762 149.201 10.7403 150.282 11.815C151.363 12.8896 152.034 14.3747 152.034 16.0146C152.034 17.6544 151.363 19.1395 150.282 20.2141C149.201 21.2888 147.708 21.955 146.056 21.955C144.406 21.955 142.912 21.2888 141.831 20.2141C140.749 19.1395 140.081 17.6544 140.081 16.0146C140.081 14.3747 140.749 12.8896 141.831 11.815C142.912 10.7403 144.406 10.0762 146.056 10.0762ZM149.813 12.2832C148.852 11.3261 147.524 10.7362 146.056 10.7362C144.591 10.7362 143.263 11.3261 142.302 12.2832C141.339 13.2382 140.745 14.5583 140.745 16.0146C140.745 17.4729 141.339 18.793 142.302 19.748C143.263 20.703 144.591 21.295 146.056 21.295C147.524 21.295 148.852 20.703 149.813 19.748C150.774 18.793 151.369 17.4729 151.369 16.0146C151.369 14.5583 150.774 13.2382 149.813 12.2832Z" fill="#5B52F9"/>
</g>
<path d="M142.566 12.7368H143.239V17.0931L145.663 14.5767H146.501L144.609 16.4991L146.56 19.0485H145.763L144.152 16.9611L143.239 17.8852V19.0485H142.566V12.7368Z" fill="#5B52F9"/>
<path d="M147.518 14.5766H148.19V15.7482C148.267 15.5626 148.366 15.3914 148.489 15.2367C148.615 15.084 148.757 14.952 148.912 14.8406C149.066 14.7251 149.236 14.6406 149.419 14.5849C149.605 14.5251 149.809 14.4982 150.025 14.5024V15.2202H149.975C149.73 15.2202 149.498 15.2655 149.278 15.3522C149.062 15.4347 148.871 15.5646 148.705 15.74C148.543 15.9112 148.416 16.1257 148.323 16.3835C148.234 16.6372 148.19 16.9322 148.19 17.2663V19.0485H147.518V14.5766Z" fill="#5B52F9"/>
<mask id="mask2_686_12798" style="mask-type:luminance" maskUnits="userSpaceOnUse" x="128" y="20" width="13" height="12">
<path d="M128.126 20.1523H140.045V32.0002H128.126V20.1523Z" fill="white"/>
</mask>
<g mask="url(#mask2_686_12798)">
<path d="M134.101 20.1523C135.753 20.1523 137.246 20.8186 138.327 21.8932C139.408 22.9679 140.079 24.453 140.079 26.0928C140.079 27.7326 139.408 29.2177 138.327 30.2924C137.246 31.367 135.753 32.0312 134.101 32.0312C132.451 32.0312 130.957 31.367 129.876 30.2924C128.794 29.2177 128.126 27.7326 128.126 26.0928C128.126 24.453 128.794 22.9679 129.876 21.8932C130.957 20.8186 132.451 20.1523 134.101 20.1523ZM137.858 22.3594C136.897 21.4044 135.569 20.8124 134.101 20.8124C132.636 20.8124 131.308 21.4044 130.347 22.3594C129.384 23.3144 128.79 24.6345 128.79 26.0928C128.79 27.5511 129.384 28.8712 130.347 29.8262C131.308 30.7812 132.636 31.3711 134.101 31.3711C135.569 31.3711 136.897 30.7812 137.858 29.8262C138.819 28.8712 139.414 27.5511 139.414 26.0928C139.414 24.6345 138.819 23.3144 137.858 22.3594Z" fill="#5B52F9"/>
</g>
<path d="M130.611 22.814H131.284V27.1703L133.708 24.6539H134.546L132.654 26.5762L134.605 29.1257H133.808L132.197 27.0383L131.284 27.9624V29.1257H130.611V22.814Z" fill="#5B52F9"/>
<path d="M135.563 24.6538H136.236V25.8254C136.313 25.6397 136.412 25.4685 136.535 25.3138C136.661 25.1612 136.803 25.0292 136.958 24.9178C137.112 24.8023 137.282 24.7177 137.465 24.662C137.651 24.6022 137.855 24.5754 138.071 24.5795V25.2973H138.021C137.776 25.2973 137.543 25.3427 137.323 25.4293C137.108 25.5118 136.917 25.6418 136.751 25.8171C136.589 25.9883 136.462 26.2028 136.369 26.4607C136.28 26.7144 136.236 27.0093 136.236 27.3435V29.1256H135.563V24.6538Z" fill="#5B52F9"/>
</svg>
